<?xml version="1.0" encoding="UTF-8"?>
<svg version="1.1" xmlns="http://www.w3.org/2000/svg" width="900" height="982">
<path d="M0 0 C187.44 0 374.88 0 568 0 C568 56.1 568 112.2 568 170 C503.32 170 438.64 170 372 170 C370.02 181.88 368.04 193.76 366 206 C362.66294643 225.44196429 362.66294643 225.44196429 361 235 C360.34 235 359.68 235 359 235 C358.94548927 235.8675869 358.94548927 235.8675869 358.88987732 236.75270081 C358.17593276 246.13386035 356.51700247 255.33042126 354.91015625 264.58984375 C354.6021099 266.38376905 354.2944541 268.17776145 353.98716736 269.97181702 C353.18123115 274.67117709 352.37022106 279.3696471 351.55804443 284.06793213 C350.73693212 288.82277825 349.92033024 293.57839842 349.10351562 298.33398438 C348.18233617 303.69638149 347.26076777 309.05870761 346.33546448 314.4203949 C346.19489844 315.23550317 346.05433241 316.05061144 345.9095068 316.89041996 C345.63876844 318.45946561 345.36758826 320.02843509 345.0959177 321.5973196 C344.15674396 327.03598771 343.26894436 332.48170263 342.42185974 337.93556213 C342 340 342 340 341 341 C338.81072047 341.1092789 336.61786418 341.14692785 334.42588806 341.15821838 C333.73251343 341.16314804 333.03913879 341.1680777 332.32475281 341.17315674 C329.97683983 341.18862309 327.62895401 341.19691785 325.28100586 341.20532227 C323.57878914 341.21503101 321.87657486 341.2251761 320.17436314 341.23572445 C315.59974996 341.26285915 311.02512711 341.28399064 306.4504776 341.30391693 C302.16394481 341.32348676 297.87744993 341.34841936 293.59094238 341.3729248 C281.03982335 341.44153034 268.48865822 341.5014818 255.9375 341.5625 C227.908125 341.706875 199.87875 341.85125 171 342 C170.67 416.58 170.34 491.16 170 568 C113.9 568 57.8 568 0 568 C0 380.56 0 193.12 0 0 Z " fill="#FEFEFE" transform="translate(166,207)"/>
</svg>
